#tb 0: 1/30
#tb 1: 1/44100
0,          0,          0,        1,   153600, 0x12f5340b
1,          0,          0,     1024,     4096, 0x00000000
1,       1024,       1024,      446,     1784, 0x00000000
0,          1,          1,        1,   153600, 0xd0473714
1,       1470,       1470,     1024,     4096, 0x00000000
1,       2494,       2494,      446,     1784, 0x00000000
0,          2,          2,        1,   153600, 0xa012e74d
1,       2940,       2940,     1024,     4096, 0x00000000
1,       3964,       3964,      446,     1784, 0x00000000
0,          3,          3,        1,   153600, 0xc673aa8b
1,       4410,       4410,     1024,     4096, 0x00000000
1,       5434,       5434,      446,     1784, 0x00000000
0,          4,          4,        1,   153600, 0xda103580
1,       5880,       5880,     1024,     4096, 0x00000000
1,       6904,       6904,      446,     1784, 0x00000000
0,          5,          5,        1,   153600, 0x174e3293
1,       7350,       7350,     1024,     4096, 0x00000000
1,       8374,       8374,      446,     1784, 0x00000000
0,          6,          6,        1,   153600, 0xe8f98a93
1,       8820,       8820,     1024,     4096, 0x00000000
1,       9844,       9844,      446,     1784, 0x00000000
0,          7,          7,        1,   153600, 0xc2b0bcb3
1,      10290,      10290,     1024,     4096, 0x00000000
1,      11314,      11314,      446,     1784, 0x00000000
0,          8,          8,        1,   153600, 0x7b6abe64
1,      11760,      11760,     1024,     4096, 0x00000000
1,      12784,      12784,      446,     1784, 0x00000000
0,          9,          9,        1,   153600, 0xf4d13559
1,      13230,      13230,     1024,     4096, 0x00000000
1,      14254,      14254,      446,     1784, 0x00000000
0,         10,         10,        1,   153600, 0xae0bf0b1
1,      14700,      14700,     1024,     4096, 0x00000000
1,      15724,      15724,      446,     1784, 0x00000000
0,         11,         11,        1,   153600, 0x70da67aa
1,      16170,      16170,     1024,     4096, 0x00000000
1,      17194,      17194,      446,     1784, 0x00000000
0,         12,         12,        1,   153600, 0x363347f5
1,      17640,      17640,     1024,     4096, 0x00000000
1,      18664,      18664,      446,     1784, 0x00000000
0,         13,         13,        1,   153600, 0x2c92025c
1,      19110,      19110,     1024,     4096, 0x00000000
1,      20134,      20134,      446,     1784, 0x00000000
0,         14,         14,        1,   153600, 0xeac2b339
1,      20580,      20580,     1024,     4096, 0x00000000
1,      21604,      21604,      446,     1784, 0x00000000
0,         15,         15,        1,   153600, 0x6be20987
1,      22050,      22050,     1024,     4096, 0x00000000
1,      23074,      23074,      446,     1784, 0x00000000
0,         16,         16,        1,   153600, 0xca797b6e
1,      23520,      23520,     1024,     4096, 0x00000000
1,      24544,      24544,      446,     1784, 0x00000000
0,         17,         17,        1,   153600, 0x10a4e34f
1,      24990,      24990,     1024,     4096, 0x00000000
1,      26014,      26014,      446,     1784, 0x00000000
0,         18,         18,        1,   153600, 0xb6d05ef5
1,      26460,      26460,     1024,     4096, 0x00000000
1,      27484,      27484,      446,     1784, 0x00000000
0,         19,         19,        1,   153600, 0xbefaead6
1,      27930,      27930,     1024,     4096, 0x00000000
1,      28954,      28954,      446,     1784, 0x00000000
0,         20,         20,        1,   153600, 0x68e62548
1,      29400,      29400,     1024,     4096, 0x00000000
1,      30424,      30424,      446,     1784, 0x00000000
0,         21,         21,        1,   153600, 0x726b1ce0
1,      30870,      30870,     1024,     4096, 0x00000000
1,      31894,      31894,      446,     1784, 0x00000000
0,         22,         22,        1,   153600, 0x624038df
1,      32340,      32340,     1024,     4096, 0x00000000
1,      33364,      33364,      446,     1784, 0x00000000
0,         23,         23,        1,   153600, 0x6c3dc462
1,      33810,      33810,     1024,     4096, 0x00000000
1,      34834,      34834,      446,     1784, 0x00000000
0,         24,         24,        1,   153600, 0xf3541df7
1,      35280,      35280,     1024,     4096, 0x00000000
1,      36304,      36304,      446,     1784, 0x00000000
0,         25,         25,        1,   153600, 0xc4e90d6b
1,      36750,      36750,     1024,     4096, 0x00000000
1,      37774,      37774,      446,     1784, 0x00000000
0,         26,         26,        1,   153600, 0x3c87c350
1,      38220,      38220,     1024,     4096, 0x00000000
1,      39244,      39244,      446,     1784, 0x00000000
0,         27,         27,        1,   153600, 0x2a68246c
1,      39690,      39690,     1024,     4096, 0x00000000
1,      40714,      40714,      446,     1784, 0x00000000
0,         28,         28,        1,   153600, 0xc90ac5d4
1,      41160,      41160,     1024,     4096, 0x00000000
1,      42184,      42184,      446,     1784, 0x00000000
0,         29,         29,        1,   153600, 0xbbfaa0e7
1,      42630,      42630,     1024,     4096, 0x00000000
1,      43654,      43654,      446,     1784, 0x00000000
0,         30,         30,        1,   153600, 0x7f82c933
1,      44100,      44100,     1024,     4096, 0x00000000
1,      45124,      45124,      446,     1784, 0x00000000
0,         31,         31,        1,   153600, 0xa0f1edbc
1,      45570,      45570,     1024,     4096, 0x00000000
1,      46594,      46594,      446,     1784, 0x00000000
0,         32,         32,        1,   153600, 0x0a92257a
1,      47040,      47040,     1024,     4096, 0x00000000
1,      48064,      48064,      446,     1784, 0x00000000
0,         33,         33,        1,   153600, 0x58f96c7d
1,      48510,      48510,     1024,     4096, 0x00000000
1,      49534,      49534,      446,     1784, 0x00000000
0,         34,         34,        1,   153600, 0x79d3c4e1
1,      49980,      49980,     1024,     4096, 0x00000000
1,      51004,      51004,      446,     1784, 0x00000000
0,         35,         35,        1,   153600, 0xfcfb2f0e
1,      51450,      51450,     1024,     4096, 0x00000000
1,      52474,      52474,      446,     1784, 0x00000000
0,         36,         36,        1,   153600, 0xd283cc9a
1,      52920,      52920,     1024,     4096, 0x00000000
1,      53944,      53944,      446,     1784, 0x00000000
0,         37,         37,        1,   153600, 0x16a185a8
1,      54390,      54390,     1024,     4096, 0x00000000
1,      55414,      55414,      446,     1784, 0x00000000
0,         38,         38,        1,   153600, 0x1c51428c
1,      55860,      55860,     1024,     4096, 0x00000000
1,      56884,      56884,      446,     1784, 0x00000000
0,         39,         39,        1,   153600, 0xce5103e5
1,      57330,      57330,     1024,     4096, 0x00000000
1,      58354,      58354,      446,     1784, 0x00000000
0,         40,         40,        1,   153600, 0x83198aea
1,      58800,      58800,     1024,     4096, 0x00000000
1,      59824,      59824,      446,     1784, 0x00000000
0,         41,         41,        1,   153600, 0x72eee215
1,      60270,      60270,     1024,     4096, 0x00000000
1,      61294,      61294,      446,     1784, 0x00000000
0,         42,         42,        1,   153600, 0x1fe4b664
1,      61740,      61740,     1024,     4096, 0x00000000
1,      62764,      62764,      446,     1784, 0x00000000
0,         43,         43,        1,   153600, 0x196d0d00
1,      63210,      63210,     1024,     4096, 0x00000000
1,      64234,      64234,      446,     1784, 0x00000000
0,         44,         44,        1,   153600, 0x1be4300e
1,      64680,      64680,     1024,     4096, 0x00000000
1,      65704,      65704,      446,     1784, 0x00000000
0,         45,         45,        1,   153600, 0x160d3e0f
1,      66150,      66150,     1024,     4096, 0x00000000
1,      67174,      67174,      446,     1784, 0x00000000
0,         46,         46,        1,   153600, 0x943068b0
1,      67620,      67620,     1024,     4096, 0x00000000
1,      68644,      68644,      446,     1784, 0x00000000
0,         47,         47,        1,   153600, 0x93d8ade9
1,      69090,      69090,     1024,     4096, 0x00000000
1,      70114,      70114,      446,     1784, 0x00000000
0,         48,         48,        1,   153600, 0x1425284c
1,      70560,      70560,     1024,     4096, 0x00000000
1,      71584,      71584,      446,     1784, 0x00000000
0,         49,         49,        1,   153600, 0xfb7bbe0b
1,      72030,      72030,     1024,     4096, 0x00000000
1,      73054,      73054,      446,     1784, 0x00000000
0,         50,         50,        1,   153600, 0x424f5e46
1,      73500,      73500,     1024,     4096, 0x00000000
1,      74524,      74524,      446,     1784, 0x00000000
0,         51,         51,        1,   153600, 0x79e8da82
1,      74970,      74970,     1024,     4096, 0x00000000
1,      75994,      75994,      446,     1784, 0x00000000
0,         52,         52,        1,   153600, 0xd6e59ddd
1,      76440,      76440,     1024,     4096, 0x00000000
1,      77464,      77464,      446,     1784, 0x00000000
0,         53,         53,        1,   153600, 0xf790c75d
1,      77910,      77910,     1024,     4096, 0x00000000
1,      78934,      78934,      446,     1784, 0x00000000
0,         54,         54,        1,   153600, 0xc9630c8c
1,      79380,      79380,     1024,     4096, 0x00000000
1,      80404,      80404,      446,     1784, 0x00000000
0,         55,         55,        1,   153600, 0xa6b489b7
1,      80850,      80850,     1024,     4096, 0x00000000
1,      81874,      81874,      446,     1784, 0x00000000
0,         56,         56,        1,   153600, 0x47fd2a5f
1,      82320,      82320,     1024,     4096, 0x00000000
1,      83344,      83344,      446,     1784, 0x00000000
0,         57,         57,        1,   153600, 0x7a89c47a
1,      83790,      83790,     1024,     4096, 0x00000000
1,      84814,      84814,      446,     1784, 0x00000000
0,         58,         58,        1,   153600, 0xe22c5eac
1,      85260,      85260,     1024,     4096, 0x00000000
1,      86284,      86284,      446,     1784, 0x00000000
0,         59,         59,        1,   153600, 0x4a8e0d5f
1,      86730,      86730,     1024,     4096, 0x00000000
1,      87754,      87754,      446,     1784, 0x00000000
0,         60,         60,        1,   153600, 0x6c9eea3f
1,      88200,      88200,     1024,     4096, 0x00000000
1,      89224,      89224,      446,     1784, 0x00000000
0,         61,         61,        1,   153600, 0x10d7e4e8
1,      89670,      89670,     1024,     4096, 0x00000000
1,      90694,      90694,      446,     1784, 0x00000000
0,         62,         62,        1,   153600, 0xd5263221
1,      91140,      91140,     1024,     4096, 0x00000000
1,      92164,      92164,      446,     1784, 0x00000000
0,         63,         63,        1,   153600, 0xbfd49397
1,      92610,      92610,     1024,     4096, 0x00000000
1,      93634,      93634,      446,     1784, 0x00000000
0,         64,         64,        1,   153600, 0x2f6a22e5
1,      94080,      94080,     1024,     4096, 0x00000000
1,      95104,      95104,      446,     1784, 0x00000000
0,         65,         65,        1,   153600, 0x90aff531
1,      95550,      95550,     1024,     4096, 0x00000000
1,      96574,      96574,      446,     1784, 0x00000000
0,         66,         66,        1,   153600, 0xec92f0bc
1,      97020,      97020,     1024,     4096, 0x00000000
1,      98044,      98044,      446,     1784, 0x00000000
0,         67,         67,        1,   153600, 0xf1a52eac
1,      98490,      98490,     1024,     4096, 0x00000000
1,      99514,      99514,      446,     1784, 0x00000000
0,         68,         68,        1,   153600, 0xcb68a590
1,      99960,      99960,     1024,     4096, 0x00000000
1,     100984,     100984,      446,     1784, 0x00000000
0,         69,         69,        1,   153600, 0x77d25306
1,     101430,     101430,     1024,     4096, 0x00000000
1,     102454,     102454,      446,     1784, 0x00000000
0,         70,         70,        1,   153600, 0xd1dd37a6
1,     102900,     102900,     1024,     4096, 0x00000000
1,     103924,     103924,      446,     1784, 0x00000000
0,         71,         71,        1,   153600, 0xaf872a99
1,     104370,     104370,     1024,     4096, 0x00000000
1,     105394,     105394,      446,     1784, 0x00000000
0,         72,         72,        1,   153600, 0x5b19fc2c
1,     105840,     105840,     1024,     4096, 0x00000000
1,     106864,     106864,      446,     1784, 0x00000000
0,         73,         73,        1,   153600, 0xd5d52db7
1,     107310,     107310,     1024,     4096, 0x00000000
1,     108334,     108334,      446,     1784, 0x00000000
0,         74,         74,        1,   153600, 0x87810e02
1,     108780,     108780,     1024,     4096, 0x00000000
1,     109804,     109804,      446,     1784, 0x00000000
0,         75,         75,        1,   153600, 0xf7bc666f
1,     110250,     110250,     1024,     4096, 0x00000000
1,     111274,     111274,      446,     1784, 0x00000000
0,         76,         76,        1,   153600, 0x09dd0d8f
1,     111720,     111720,     1024,     4096, 0x00000000
1,     112744,     112744,      446,     1784, 0x00000000
0,         77,         77,        1,   153600, 0xf28233be
1,     113190,     113190,     1024,     4096, 0x00000000
1,     114214,     114214,      446,     1784, 0x00000000
0,         78,         78,        1,   153600, 0x3f0b92dc
1,     114660,     114660,     1024,     4096, 0x00000000
1,     115684,     115684,      446,     1784, 0x00000000
0,         79,         79,        1,   153600, 0x81fde969
1,     116130,     116130,     1024,     4096, 0x00000000
1,     117154,     117154,      446,     1784, 0x00000000
0,         80,         80,        1,   153600, 0x94ba62b6
1,     117600,     117600,     1024,     4096, 0x00000000
1,     118624,     118624,      446,     1784, 0x00000000
0,         81,         81,        1,   153600, 0xd44f121b
1,     119070,     119070,     1024,     4096, 0x00000000
1,     120094,     120094,      446,     1784, 0x00000000
0,         82,         82,        1,   153600, 0xf17e9c71
1,     120540,     120540,     1024,     4096, 0x00000000
1,     121564,     121564,      446,     1784, 0x00000000
0,         83,         83,        1,   153600, 0x520d8ffc
1,     122010,     122010,     1024,     4096, 0x00000000
1,     123034,     123034,      446,     1784, 0x00000000
0,         84,         84,        1,   153600, 0xa8336959
1,     123480,     123480,     1024,     4096, 0x00000000
1,     124504,     124504,      446,     1784, 0x00000000
0,         85,         85,        1,   153600, 0x526a4961
1,     124950,     124950,     1024,     4096, 0x00000000
1,     125974,     125974,      446,     1784, 0x00000000
0,         86,         86,        1,   153600, 0x49d931d8
1,     126420,     126420,     1024,     4096, 0x00000000
1,     127444,     127444,      446,     1784, 0x00000000
0,         87,         87,        1,   153600, 0x3599fafc
1,     127890,     127890,     1024,     4096, 0x00000000
1,     128914,     128914,      446,     1784, 0x00000000
0,         88,         88,        1,   153600, 0x7baee5b0
1,     129360,     129360,     1024,     4096, 0x00000000
1,     130384,     130384,      446,     1784, 0x00000000
0,         89,         89,        1,   153600, 0x78b0e593
1,     130830,     130830,     1024,     4096, 0x00000000
1,     131854,     131854,      446,     1784, 0x00000000
